<?xml version="1.0"?>
<svg width="250mm" height="200mm" viewBox="0 0 4100 1640"
     xmlns="http://www.w3.org/2000/svg"
     xmlns:xlink="http://www.w3.org/1999/xlink"
     xmlns:ev="http://www.w3.org/2001/xml-events">
<g font-family="Verdana" font-size="8">
  <line x1="300" y1="1470" x2="300" y2="1550" style="stroke:silver;"/>
  <line x1="300" y1="1470" x2="300" y2="1630" style="stroke:silver;"/>
  <line x1="300" y1="1550" x2="300" y2="1630" style="stroke:silver;"/>
  <rect x="2300" y="20" width="200" height="20" style="fill:chartreuse; stroke: black;"/>1
  <text x="2302" y="33">CORE_BOTTOM</text>
  <rect x="1000" y="740" width="200" height="20" style="fill:orange; stroke: black;"/>16
  <text x="1002" y="753">SWHSYS1 WATER HEATER</text>
  <rect x="200" y="1460" width="200" height="20" style="fill:snow; stroke: black;"/>17
  <text x="202" y="1473">OutdoorAir:NodeList</text>
  <rect x="200" y="1540" width="200" height="20" style="fill:snow; stroke: black;"/>18
  <text x="202" y="1553">OutdoorAir:NodeList</text>
  <rect x="200" y="1620" width="200" height="20" style="fill:snow; stroke: black;"/>19
  <text x="202" y="1633">OutdoorAir:NodeList</text>
  <rect x="1000" y="780" width="200" height="20" style="fill:wheat; stroke: black;"/>39
  <text x="1002" y="793">SWHSYS1 SUPPLY EQUIPMENT BYPASS PIPE</text>
  <rect x="1800" y="780" width="200" height="20" style="fill:wheat; stroke: black;"/>40
  <text x="1802" y="793">SWHSYS1 SUPPLY OUTLET PIPE</text>
  <rect x="2200" y="780" width="200" height="20" style="fill:wheat; stroke: black;"/>41
  <text x="2202" y="793">SWHSYS1 DEMAND INLET PIPE</text>
  <rect x="3000" y="1380" width="200" height="20" style="fill:wheat; stroke: black;"/>42
  <text x="3002" y="1393">SWHSYS1 DEMAND BYPASS PIPE</text>
  <rect x="3800" y="1380" width="200" height="20" style="fill:wheat; stroke: black;"/>43
  <text x="3802" y="1393">SWHSYS1 DEMAND OUTLET PIPE</text>
  <rect x="3000" y="780" width="200" height="20" style="fill:wheat; stroke: black;"/>44
  <text x="3002" y="793">CORE_BOTTOM SUB CAT</text>
  <rect x="3000" y="820" width="200" height="20" style="fill:wheat; stroke: black;"/>45
  <text x="3002" y="833">CORE_MID SUB CAT</text>
  <rect x="3000" y="860" width="200" height="20" style="fill:wheat; stroke: black;"/>46
  <text x="3002" y="873">CORE_TOP SUB CAT</text>
  <rect x="3000" y="900" width="200" height="20" style="fill:wheat; stroke: black;"/>47
  <text x="3002" y="913">PERIMETER_TOP_ZN_3 SUB CAT</text>
  <rect x="3000" y="940" width="200" height="20" style="fill:wheat; stroke: black;"/>48
  <text x="3002" y="953">PERIMETER_TOP_ZN_2 SUB CAT</text>
  <rect x="3000" y="980" width="200" height="20" style="fill:wheat; stroke: black;"/>49
  <text x="3002" y="993">PERIMETER_TOP_ZN_1 SUB CAT</text>
  <rect x="3000" y="1020" width="200" height="20" style="fill:wheat; stroke: black;"/>50
  <text x="3002" y="1033">PERIMETER_TOP_ZN_4 SUB CAT</text>
  <rect x="3000" y="1060" width="200" height="20" style="fill:wheat; stroke: black;"/>51
  <text x="3002" y="1073">PERIMETER_BOT_ZN_3 SUB CAT</text>
  <rect x="3000" y="1100" width="200" height="20" style="fill:wheat; stroke: black;"/>52
  <text x="3002" y="1113">PERIMETER_BOT_ZN_2 SUB CAT</text>
  <rect x="3000" y="1140" width="200" height="20" style="fill:wheat; stroke: black;"/>53
  <text x="3002" y="1153">PERIMETER_BOT_ZN_1 SUB CAT</text>
  <rect x="3000" y="1180" width="200" height="20" style="fill:wheat; stroke: black;"/>54
  <text x="3002" y="1193">PERIMETER_BOT_ZN_4 SUB CAT</text>
  <rect x="3000" y="1220" width="200" height="20" style="fill:wheat; stroke: black;"/>55
  <text x="3002" y="1233">PERIMETER_MID_ZN_3 SUB CAT</text>
  <rect x="3000" y="1260" width="200" height="20" style="fill:wheat; stroke: black;"/>56
  <text x="3002" y="1273">PERIMETER_MID_ZN_2 SUB CAT</text>
  <rect x="3000" y="1300" width="200" height="20" style="fill:wheat; stroke: black;"/>57
  <text x="3002" y="1313">PERIMETER_MID_ZN_1 SUB CAT</text>
  <rect x="3000" y="1340" width="200" height="20" style="fill:wheat; stroke: black;"/>58
  <text x="3002" y="1353">PERIMETER_MID_ZN_4 SUB CAT</text>
  <rect x="2600" y="780" width="200" height="20" style="fill:wheat; stroke: black;"/>59
  <text x="2602" y="793">SWHSYS1 DEMAND SPLITTER</text>
  <rect x="3400" y="1380" width="200" height="20" style="fill:wheat; stroke: black;"/>60
  <text x="3402" y="1393">SWHSYS1 DEMAND MIXER</text>
  <rect x="600" y="740" width="200" height="20" style="fill:wheat; stroke: black;"/>61
  <text x="602" y="753">SWHSYS1 SUPPLY SPLITTER</text>
  <rect x="1400" y="780" width="200" height="20" style="fill:wheat; stroke: black;"/>62
  <text x="1402" y="793">SWHSYS1 SUPPLY MIXER</text>
  <rect x="1400" y="20" width="200" height="20" style="fill:wheat; stroke: black;"/>63
  <text x="1402" y="33">PACU_VAV_BOT SUPPLY AIR SPLITTER</text>
  <rect x="1400" y="260" width="200" height="20" style="fill:wheat; stroke: black;"/>64
  <text x="1402" y="273">PACU_VAV_MID SUPPLY AIR SPLITTER</text>
  <rect x="1400" y="500" width="200" height="20" style="fill:wheat; stroke: black;"/>65
  <text x="1402" y="513">PACU_VAV_TOP SUPPLY AIR SPLITTER</text>
  <rect x="1700" y="20" width="200" height="20" style="fill:wheat; stroke: black;"/>66
  <text x="1702" y="33">CORE_BOTTOM VAV BOX COMPONENT</text>
  <rect x="1700" y="60" width="200" height="20" style="fill:wheat; stroke: black;"/>67
  <text x="1702" y="73">PERIMETER_BOT_ZN_1 VAV BOX COMPONENT</text>
  <rect x="1700" y="100" width="200" height="20" style="fill:wheat; stroke: black;"/>68
  <text x="1702" y="113">PERIMETER_BOT_ZN_2 VAV BOX COMPONENT</text>
  <rect x="1700" y="140" width="200" height="20" style="fill:wheat; stroke: black;"/>69
  <text x="1702" y="153">PERIMETER_BOT_ZN_3 VAV BOX COMPONENT</text>
  <rect x="1700" y="180" width="200" height="20" style="fill:wheat; stroke: black;"/>70
  <text x="1702" y="193">PERIMETER_BOT_ZN_4 VAV BOX COMPONENT</text>
  <rect x="1700" y="260" width="200" height="20" style="fill:wheat; stroke: black;"/>71
  <text x="1702" y="273">CORE_MID VAV BOX COMPONENT</text>
  <rect x="1700" y="300" width="200" height="20" style="fill:wheat; stroke: black;"/>72
  <text x="1702" y="313">PERIMETER_MID_ZN_1 VAV BOX COMPONENT</text>
  <rect x="1700" y="340" width="200" height="20" style="fill:wheat; stroke: black;"/>73
  <text x="1702" y="353">PERIMETER_MID_ZN_2 VAV BOX COMPONENT</text>
  <rect x="1700" y="380" width="200" height="20" style="fill:wheat; stroke: black;"/>74
  <text x="1702" y="393">PERIMETER_MID_ZN_3 VAV BOX COMPONENT</text>
  <rect x="1700" y="420" width="200" height="20" style="fill:wheat; stroke: black;"/>75
  <text x="1702" y="433">PERIMETER_MID_ZN_4 VAV BOX COMPONENT</text>
  <rect x="1700" y="500" width="200" height="20" style="fill:wheat; stroke: black;"/>76
  <text x="1702" y="513">CORE_TOP VAV BOX COMPONENT</text>
  <rect x="1700" y="540" width="200" height="20" style="fill:wheat; stroke: black;"/>77
  <text x="1702" y="553">PERIMETER_TOP_ZN_1 VAV BOX COMPONENT</text>
  <rect x="1700" y="580" width="200" height="20" style="fill:wheat; stroke: black;"/>78
  <text x="1702" y="593">PERIMETER_TOP_ZN_2 VAV BOX COMPONENT</text>
  <rect x="1700" y="620" width="200" height="20" style="fill:wheat; stroke: black;"/>79
  <text x="1702" y="633">PERIMETER_TOP_ZN_3 VAV BOX COMPONENT</text>
  <rect x="1700" y="660" width="200" height="20" style="fill:wheat; stroke: black;"/>80
  <text x="1702" y="673">PERIMETER_TOP_ZN_4 VAV BOX COMPONENT</text>
  <rect x="2000" y="20" width="200" height="20" style="fill:salmon; stroke: black;"/>81
  <text x="2002" y="33">CORE_BOTTOM VAV BOX REHEAT COIL</text>
  <rect x="2000" y="60" width="200" height="20" style="fill:salmon; stroke: black;"/>82
  <text  x="2002" y="68">PERIMETER_BOT_ZN_1 VAV BOX REHEAT
  <tspan x="2002" y="76">COIL</tspan></text>
  <rect x="2000" y="100" width="200" height="20" style="fill:salmon; stroke: black;"/>83
  <text  x="2002" y="108">PERIMETER_BOT_ZN_2 VAV BOX REHEAT
  <tspan x="2002" y="116">COIL</tspan></text>
  <rect x="2000" y="140" width="200" height="20" style="fill:salmon; stroke: black;"/>84
  <text  x="2002" y="148">PERIMETER_BOT_ZN_3 VAV BOX REHEAT
  <tspan x="2002" y="156">COIL</tspan></text>
  <rect x="2000" y="180" width="200" height="20" style="fill:salmon; stroke: black;"/>85
  <text  x="2002" y="188">PERIMETER_BOT_ZN_4 VAV BOX REHEAT
  <tspan x="2002" y="196">COIL</tspan></text>
  <rect x="2000" y="260" width="200" height="20" style="fill:salmon; stroke: black;"/>86
  <text x="2002" y="273">CORE_MID VAV BOX REHEAT COIL</text>
  <rect x="2000" y="300" width="200" height="20" style="fill:salmon; stroke: black;"/>87
  <text  x="2002" y="308">PERIMETER_MID_ZN_1 VAV BOX REHEAT
  <tspan x="2002" y="316">COIL</tspan></text>
  <rect x="2000" y="340" width="200" height="20" style="fill:salmon; stroke: black;"/>88
  <text  x="2002" y="348">PERIMETER_MID_ZN_2 VAV BOX REHEAT
  <tspan x="2002" y="356">COIL</tspan></text>
  <rect x="2000" y="380" width="200" height="20" style="fill:salmon; stroke: black;"/>89
  <text  x="2002" y="388">PERIMETER_MID_ZN_3 VAV BOX REHEAT
  <tspan x="2002" y="396">COIL</tspan></text>
  <rect x="2000" y="420" width="200" height="20" style="fill:salmon; stroke: black;"/>90
  <text  x="2002" y="428">PERIMETER_MID_ZN_4 VAV BOX REHEAT
  <tspan x="2002" y="436">COIL</tspan></text>
  <rect x="2000" y="500" width="200" height="20" style="fill:salmon; stroke: black;"/>91
  <text x="2002" y="513">CORE_TOP VAV BOX REHEAT COIL</text>
  <rect x="2000" y="540" width="200" height="20" style="fill:salmon; stroke: black;"/>92
  <text  x="2002" y="548">PERIMETER_TOP_ZN_1 VAV BOX REHEAT
  <tspan x="2002" y="556">COIL</tspan></text>
  <rect x="2000" y="580" width="200" height="20" style="fill:salmon; stroke: black;"/>93
  <text  x="2002" y="588">PERIMETER_TOP_ZN_2 VAV BOX REHEAT
  <tspan x="2002" y="596">COIL</tspan></text>
  <rect x="2000" y="620" width="200" height="20" style="fill:salmon; stroke: black;"/>94
  <text  x="2002" y="628">PERIMETER_TOP_ZN_3 VAV BOX REHEAT
  <tspan x="2002" y="636">COIL</tspan></text>
  <rect x="2000" y="660" width="200" height="20" style="fill:salmon; stroke: black;"/>95
  <text  x="2002" y="668">PERIMETER_TOP_ZN_4 VAV BOX REHEAT
  <tspan x="2002" y="676">COIL</tspan></text>
  <rect x="800" y="20" width="200" height="20" style="fill:salmon; stroke: black;"/>96
  <text x="802" y="33">PACU_VAV_BOT HEATING COIL</text>
  <rect x="800" y="260" width="200" height="20" style="fill:salmon; stroke: black;"/>97
  <text x="802" y="273">PACU_VAV_MID HEATING COIL</text>
  <rect x="800" y="500" width="200" height="20" style="fill:salmon; stroke: black;"/>98
  <text x="802" y="513">PACU_VAV_TOP HEATING COIL</text>
  <rect x="2600" y="180" width="200" height="20" style="fill:lightgreen; stroke: black;"/>99
  <text x="2602" y="193">FIRSTFLOOR_PLENUM_RETURN</text>
  <rect x="2600" y="420" width="200" height="20" style="fill:lightgreen; stroke: black;"/>100
  <text x="2602" y="433">MIDFLOOR_PLENUM_RETURN</text>
  <rect x="2600" y="660" width="200" height="20" style="fill:lightgreen; stroke: black;"/>101
  <text x="2602" y="673">TOPFLOOR_PLENUM_RETURN</text>
  <rect x="2900" y="180" width="200" height="20" style="fill:wheat; stroke: black;"/>102
  <text x="2902" y="193">PACU_VAV_BOT RETURN AIR MIXER</text>
  <rect x="2900" y="420" width="200" height="20" style="fill:wheat; stroke: black;"/>103
  <text x="2902" y="433">PACU_VAV_MID RETURN AIR MIXER</text>
  <rect x="2900" y="660" width="200" height="20" style="fill:wheat; stroke: black;"/>104
  <text x="2902" y="673">PACU_VAV_TOP RETURN AIR MIXER</text>
  <rect x="200" y="20" width="200" height="20" style="fill:lawngreen; stroke: black;"/>105
  <text x="202" y="33">PACU_VAV_BOT_OAMIXING BOX</text>
  <rect x="200" y="260" width="200" height="20" style="fill:lawngreen; stroke: black;"/>106
  <text x="202" y="273">PACU_VAV_MID_OAMIXING BOX</text>
  <rect x="200" y="500" width="200" height="20" style="fill:lawngreen; stroke: black;"/>107
  <text x="202" y="513">PACU_VAV_TOP_OAMIXING BOX</text>
  <rect x="1100" y="20" width="200" height="20" style="fill:silver; stroke: black;"/>108
  <text x="1102" y="33">PACU_VAV_BOT FAN</text>
  <rect x="1100" y="260" width="200" height="20" style="fill:silver; stroke: black;"/>109
  <text x="1102" y="273">PACU_VAV_MID FAN</text>
  <rect x="1100" y="500" width="200" height="20" style="fill:silver; stroke: black;"/>110
  <text x="1102" y="513">PACU_VAV_TOP FAN</text>
  <rect x="500" y="20" width="200" height="20" style="fill:skyblue; stroke: black;"/>114
  <text x="502" y="33">PACU_VAV_BOT COOLING COIL</text>
  <rect x="500" y="260" width="200" height="20" style="fill:skyblue; stroke: black;"/>115
  <text x="502" y="273">PACU_VAV_MID COOLING COIL</text>
  <rect x="500" y="500" width="200" height="20" style="fill:skyblue; stroke: black;"/>116
  <text x="502" y="513">PACU_VAV_TOP COOLING COIL</text>
  <rect x="200" y="740" width="200" height="20" style="fill:springgreen; stroke: black;"/>117
  <text x="202" y="753">SWHSYS1 PUMP</text>
  <rect x="2300" y="60" width="200" height="20" style="fill:chartreuse; stroke: black;"/>118
  <text x="2302" y="73">PERIMETER_BOT_ZN_1</text>
  <rect x="2300" y="100" width="200" height="20" style="fill:chartreuse; stroke: black;"/>119
  <text x="2302" y="113">PERIMETER_BOT_ZN_2</text>
  <rect x="2300" y="140" width="200" height="20" style="fill:chartreuse; stroke: black;"/>120
  <text x="2302" y="153">PERIMETER_BOT_ZN_3</text>
  <rect x="2300" y="180" width="200" height="20" style="fill:chartreuse; stroke: black;"/>121
  <text x="2302" y="193">PERIMETER_BOT_ZN_4</text>
  <rect x="2300" y="260" width="200" height="20" style="fill:chartreuse; stroke: black;"/>122
  <text x="2302" y="273">CORE_MID</text>
  <rect x="2300" y="300" width="200" height="20" style="fill:chartreuse; stroke: black;"/>123
  <text x="2302" y="313">PERIMETER_MID_ZN_1</text>
  <rect x="2300" y="340" width="200" height="20" style="fill:chartreuse; stroke: black;"/>124
  <text x="2302" y="353">PERIMETER_MID_ZN_2</text>
  <rect x="2300" y="380" width="200" height="20" style="fill:chartreuse; stroke: black;"/>125
  <text x="2302" y="393">PERIMETER_MID_ZN_3</text>
  <rect x="2300" y="420" width="200" height="20" style="fill:chartreuse; stroke: black;"/>126
  <text x="2302" y="433">PERIMETER_MID_ZN_4</text>
  <rect x="2300" y="500" width="200" height="20" style="fill:chartreuse; stroke: black;"/>127
  <text x="2302" y="513">CORE_TOP</text>
  <rect x="2300" y="540" width="200" height="20" style="fill:chartreuse; stroke: black;"/>128
  <text x="2302" y="553">PERIMETER_TOP_ZN_1</text>
  <rect x="2300" y="580" width="200" height="20" style="fill:chartreuse; stroke: black;"/>129
  <text x="2302" y="593">PERIMETER_TOP_ZN_2</text>
  <rect x="2300" y="620" width="200" height="20" style="fill:chartreuse; stroke: black;"/>130
  <text x="2302" y="633">PERIMETER_TOP_ZN_3</text>
  <rect x="2300" y="660" width="200" height="20" style="fill:chartreuse; stroke: black;"/>131
  <text x="2302" y="673">PERIMETER_TOP_ZN_4</text>
  <line x1="1200" y1="750" x2="1400" y2="790" style="stroke:black;"/>
  <line x1="1200" y1="790" x2="1400" y2="790" style="stroke:black;"/>
  <line x1="2000" y1="790" x2="2200" y2="790" style="stroke:black;"/>
  <line x1="2400" y1="790" x2="2600" y2="790" style="stroke:black;"/>
  <line x1="3200" y1="1390" x2="3400" y2="1390" style="stroke:black;"/>
  <line x1="3200" y1="790" x2="3400" y2="1390" style="stroke:black;"/>
  <line x1="3200" y1="830" x2="3400" y2="1390" style="stroke:black;"/>
  <line x1="3200" y1="870" x2="3400" y2="1390" style="stroke:black;"/>
  <line x1="3200" y1="910" x2="3400" y2="1390" style="stroke:black;"/>
  <line x1="3200" y1="950" x2="3400" y2="1390" style="stroke:black;"/>
  <line x1="3200" y1="990" x2="3400" y2="1390" style="stroke:black;"/>
  <line x1="3200" y1="1030" x2="3400" y2="1390" style="stroke:black;"/>
  <line x1="3200" y1="1070" x2="3400" y2="1390" style="stroke:black;"/>
  <line x1="3200" y1="1110" x2="3400" y2="1390" style="stroke:black;"/>
  <line x1="3200" y1="1150" x2="3400" y2="1390" style="stroke:black;"/>
  <line x1="3200" y1="1190" x2="3400" y2="1390" style="stroke:black;"/>
  <line x1="3200" y1="1230" x2="3400" y2="1390" style="stroke:black;"/>
  <line x1="3200" y1="1270" x2="3400" y2="1390" style="stroke:black;"/>
  <line x1="3200" y1="1310" x2="3400" y2="1390" style="stroke:black;"/>
  <line x1="3200" y1="1350" x2="3400" y2="1390" style="stroke:black;"/>
  <line x1="2800" y1="790" x2="3000" y2="790" style="stroke:black;"/>
  <line x1="2800" y1="790" x2="3000" y2="830" style="stroke:black;"/>
  <line x1="2800" y1="790" x2="3000" y2="870" style="stroke:black;"/>
  <line x1="2800" y1="790" x2="3000" y2="910" style="stroke:black;"/>
  <line x1="2800" y1="790" x2="3000" y2="950" style="stroke:black;"/>
  <line x1="2800" y1="790" x2="3000" y2="990" style="stroke:black;"/>
  <line x1="2800" y1="790" x2="3000" y2="1030" style="stroke:black;"/>
  <line x1="2800" y1="790" x2="3000" y2="1070" style="stroke:black;"/>
  <line x1="2800" y1="790" x2="3000" y2="1110" style="stroke:black;"/>
  <line x1="2800" y1="790" x2="3000" y2="1150" style="stroke:black;"/>
  <line x1="2800" y1="790" x2="3000" y2="1190" style="stroke:black;"/>
  <line x1="2800" y1="790" x2="3000" y2="1230" style="stroke:black;"/>
  <line x1="2800" y1="790" x2="3000" y2="1270" style="stroke:black;"/>
  <line x1="2800" y1="790" x2="3000" y2="1310" style="stroke:black;"/>
  <line x1="2800" y1="790" x2="3000" y2="1350" style="stroke:black;"/>
  <line x1="2800" y1="790" x2="3000" y2="1390" style="stroke:black;"/>
  <line x1="3600" y1="1390" x2="3800" y2="1390" style="stroke:black;"/>
  <line x1="800" y1="750" x2="1000" y2="750" style="stroke:black;"/>
  <line x1="800" y1="750" x2="1000" y2="790" style="stroke:black;"/>
  <line x1="1600" y1="790" x2="1800" y2="790" style="stroke:black;"/>
  <line x1="1600" y1="30" x2="1700" y2="30" style="stroke:black;"/>
  <line x1="1600" y1="30" x2="1700" y2="70" style="stroke:black;"/>
  <line x1="1600" y1="30" x2="1700" y2="110" style="stroke:black;"/>
  <line x1="1600" y1="30" x2="1700" y2="150" style="stroke:black;"/>
  <line x1="1600" y1="30" x2="1700" y2="190" style="stroke:black;"/>
  <line x1="1600" y1="270" x2="1700" y2="270" style="stroke:black;"/>
  <line x1="1600" y1="270" x2="1700" y2="310" style="stroke:black;"/>
  <line x1="1600" y1="270" x2="1700" y2="350" style="stroke:black;"/>
  <line x1="1600" y1="270" x2="1700" y2="390" style="stroke:black;"/>
  <line x1="1600" y1="270" x2="1700" y2="430" style="stroke:black;"/>
  <line x1="1600" y1="510" x2="1700" y2="510" style="stroke:black;"/>
  <line x1="1600" y1="510" x2="1700" y2="550" style="stroke:black;"/>
  <line x1="1600" y1="510" x2="1700" y2="590" style="stroke:black;"/>
  <line x1="1600" y1="510" x2="1700" y2="630" style="stroke:black;"/>
  <line x1="1600" y1="510" x2="1700" y2="670" style="stroke:black;"/>
  <line x1="1900" y1="30" x2="2000" y2="30" style="stroke:black;"/>
  <line x1="1900" y1="70" x2="2000" y2="70" style="stroke:black;"/>
  <line x1="1900" y1="110" x2="2000" y2="110" style="stroke:black;"/>
  <line x1="1900" y1="150" x2="2000" y2="150" style="stroke:black;"/>
  <line x1="1900" y1="190" x2="2000" y2="190" style="stroke:black;"/>
  <line x1="1900" y1="270" x2="2000" y2="270" style="stroke:black;"/>
  <line x1="1900" y1="310" x2="2000" y2="310" style="stroke:black;"/>
  <line x1="1900" y1="350" x2="2000" y2="350" style="stroke:black;"/>
  <line x1="1900" y1="390" x2="2000" y2="390" style="stroke:black;"/>
  <line x1="1900" y1="430" x2="2000" y2="430" style="stroke:black;"/>
  <line x1="1900" y1="510" x2="2000" y2="510" style="stroke:black;"/>
  <line x1="1900" y1="550" x2="2000" y2="550" style="stroke:black;"/>
  <line x1="1900" y1="590" x2="2000" y2="590" style="stroke:black;"/>
  <line x1="1900" y1="630" x2="2000" y2="630" style="stroke:black;"/>
  <line x1="1900" y1="670" x2="2000" y2="670" style="stroke:black;"/>
  <line x1="2200" y1="30" x2="2300" y2="30" style="stroke:black;"/>
  <line x1="2200" y1="70" x2="2300" y2="70" style="stroke:black;"/>
  <line x1="2200" y1="110" x2="2300" y2="110" style="stroke:black;"/>
  <line x1="2200" y1="150" x2="2300" y2="150" style="stroke:black;"/>
  <line x1="2200" y1="190" x2="2300" y2="190" style="stroke:black;"/>
  <line x1="2200" y1="270" x2="2300" y2="270" style="stroke:black;"/>
  <line x1="2200" y1="310" x2="2300" y2="310" style="stroke:black;"/>
  <line x1="2200" y1="350" x2="2300" y2="350" style="stroke:black;"/>
  <line x1="2200" y1="390" x2="2300" y2="390" style="stroke:black;"/>
  <line x1="2200" y1="430" x2="2300" y2="430" style="stroke:black;"/>
  <line x1="2200" y1="510" x2="2300" y2="510" style="stroke:black;"/>
  <line x1="2200" y1="550" x2="2300" y2="550" style="stroke:black;"/>
  <line x1="2200" y1="590" x2="2300" y2="590" style="stroke:black;"/>
  <line x1="2200" y1="630" x2="2300" y2="630" style="stroke:black;"/>
  <line x1="2200" y1="670" x2="2300" y2="670" style="stroke:black;"/>
  <line x1="1000" y1="30" x2="1100" y2="30" style="stroke:black;"/>
  <line x1="1000" y1="270" x2="1100" y2="270" style="stroke:black;"/>
  <line x1="1000" y1="510" x2="1100" y2="510" style="stroke:black;"/>
  <line x1="2800" y1="190" x2="2900" y2="190" style="stroke:black;"/>
  <line x1="2800" y1="430" x2="2900" y2="430" style="stroke:black;"/>
  <line x1="2800" y1="670" x2="2900" y2="670" style="stroke:black;"/>
  <line x1="400" y1="30" x2="500" y2="30" style="stroke:black;"/>
  <line x1="400" y1="270" x2="500" y2="270" style="stroke:black;"/>
  <line x1="400" y1="510" x2="500" y2="510" style="stroke:black;"/>
  <line x1="1300" y1="30" x2="1400" y2="30" style="stroke:black;"/>
  <line x1="1300" y1="270" x2="1400" y2="270" style="stroke:black;"/>
  <line x1="1300" y1="510" x2="1400" y2="510" style="stroke:black;"/>
  <line x1="700" y1="30" x2="800" y2="30" style="stroke:black;"/>
  <line x1="700" y1="270" x2="800" y2="270" style="stroke:black;"/>
  <line x1="700" y1="510" x2="800" y2="510" style="stroke:black;"/>
  <line x1="400" y1="750" x2="600" y2="750" style="stroke:black;"/>
  <line x1="2500" y1="30" x2="2600" y2="190" style="stroke:black;"/>
  <line x1="2500" y1="70" x2="2600" y2="190" style="stroke:black;"/>
  <line x1="2500" y1="110" x2="2600" y2="190" style="stroke:black;"/>
  <line x1="2500" y1="150" x2="2600" y2="190" style="stroke:black;"/>
  <line x1="2500" y1="190" x2="2600" y2="190" style="stroke:black;"/>
  <line x1="2500" y1="270" x2="2600" y2="430" style="stroke:black;"/>
  <line x1="2500" y1="310" x2="2600" y2="430" style="stroke:black;"/>
  <line x1="2500" y1="350" x2="2600" y2="430" style="stroke:black;"/>
  <line x1="2500" y1="390" x2="2600" y2="430" style="stroke:black;"/>
  <line x1="2500" y1="430" x2="2600" y2="430" style="stroke:black;"/>
  <line x1="2500" y1="510" x2="2600" y2="670" style="stroke:black;"/>
  <line x1="2500" y1="550" x2="2600" y2="670" style="stroke:black;"/>
  <line x1="2500" y1="590" x2="2600" y2="670" style="stroke:black;"/>
  <line x1="2500" y1="630" x2="2600" y2="670" style="stroke:black;"/>
  <line x1="2500" y1="670" x2="2600" y2="670" style="stroke:black;"/>
  <line x1="200" y1="30" x2="175" y2="30" style="stroke:black;"/>
  <line x1="175" y1="30" x2="175" y2="0" style="stroke:black;"/>
  <line x1="175" y1="0" x2="3125" y2="0" style="stroke:black;"/>
  <line x1="3125" y1="0" x2="3125" y2="190" style="stroke:black;"/>
  <line x1="3125" y1="190" x2="3100" y2="190" style="stroke:black;"/>
  <line x1="200" y1="270" x2="175" y2="270" style="stroke:black;"/>
  <line x1="175" y1="270" x2="175" y2="240" style="stroke:black;"/>
  <line x1="175" y1="240" x2="3125" y2="240" style="stroke:black;"/>
  <line x1="3125" y1="240" x2="3125" y2="430" style="stroke:black;"/>
  <line x1="3125" y1="430" x2="3100" y2="430" style="stroke:black;"/>
  <line x1="200" y1="510" x2="175" y2="510" style="stroke:black;"/>
  <line x1="175" y1="510" x2="175" y2="480" style="stroke:black;"/>
  <line x1="175" y1="480" x2="3125" y2="480" style="stroke:black;"/>
  <line x1="3125" y1="480" x2="3125" y2="670" style="stroke:black;"/>
  <line x1="3125" y1="670" x2="3100" y2="670" style="stroke:black;"/>
  <line x1="200" y1="750" x2="175" y2="750" style="stroke:black;"/>
  <line x1="175" y1="750" x2="175" y2="720" style="stroke:black;"/>
  <line x1="175" y1="720" x2="4025" y2="720" style="stroke:black;"/>
  <line x1="4025" y1="720" x2="4025" y2="1390" style="stroke:black;"/>
  <line x1="4025" y1="1390" x2="4000" y2="1390" style="stroke:black;"/>
  <text x="200" y="1680">Unused Non-Parent Objects:</text>
  <text x="220" y="1700">OutdoorAir:Node</text>
  <text x="220" y="1720">OutdoorAir:Node</text>
  <text x="220" y="1740">OutdoorAir:Node</text>
  <text x="220" y="1760">OutdoorAir:Node</text>
  <text x="220" y="1780">OutdoorAir:Node</text>
  <text x="220" y="1800">OutdoorAir:Node</text>
  <text x="220" y="1820">SWHSYS1 LOOP SETPOINT MANAGER</text>
  <text x="220" y="1840">PACU_VAV_BOT_COOLC SAT MANAGER</text>
  <text x="220" y="1860">PACU_VAV_BOT_HEATC MIXEDAIR MANAGER</text>
  <text x="220" y="1880">PACU_VAV_BOT_OAMIXED AIR TEMP MANAGER</text>
  <text x="220" y="1900">PACU_VAV_MID_COOLC SAT MANAGER</text>
  <text x="220" y="1920">PACU_VAV_MID_HEATC MIXEDAIR MANAGER</text>
  <text x="220" y="1940">PACU_VAV_MID_OAMIXED AIR TEMP MANAGER</text>
  <text x="220" y="1960">PACU_VAV_TOP_COOLC SAT MANAGER</text>
  <text x="220" y="1980">PACU_VAV_TOP_HEATC MIXEDAIR MANAGER</text>
  <text x="220" y="2000">PACU_VAV_TOP_OAMIXED AIR TEMP MANAGER</text>
  <text x="220" y="2020">PACU_VAV_BOT SUPPLY AIR TEMPERATURE MANAGER</text>
  <text x="220" y="2040">PACU_VAV_MID SUPPLY AIR TEMPERATURE MANAGER</text>
  <text x="220" y="2060">PACU_VAV_TOP SUPPLY AIR TEMPERATURE MANAGER</text>
  <text x="220" y="2080">PACU_VAV_BOT_OA_CONTROLLER</text>
  <text x="220" y="2100">PACU_VAV_MID_OA_CONTROLLER</text>
  <text x="220" y="2120">PACU_VAV_TOP_OA_CONTROLLER</text>
  <text x="200" y="2160">
The following are not supported: objects related to controls or ZoneHVAC:IdealLoadsAirSystem</text>
</g>
</svg>
